<?xml version="1.0" encoding="UTF-8" standalone="no"?>
<!-- Generator: Adobe Illustrator 16.0.0, SVG Export Plug-In . SVG Version: 6.00 Build 0)  -->

<svg
   xmlns:dc="http://purl.org/dc/elements/1.1/"
   xmlns:cc="http://creativecommons.org/ns#"
   xmlns:rdf="http://www.w3.org/1999/02/22-rdf-syntax-ns#"
   xmlns:svg="http://www.w3.org/2000/svg"
   xmlns="http://www.w3.org/2000/svg"
   xmlns:sodipodi="http://sodipodi.sourceforge.net/DTD/sodipodi-0.dtd"
   xmlns:inkscape="http://www.inkscape.org/namespaces/inkscape"
   version="1.1"
   id="Capa_1"
   x="0px"
   y="0px"
   width="485.69px"
   height="485.69px"
   viewBox="0 0 485.69 485.69"
   style="enable-background:new 0 0 485.69 485.69;"
   xml:space="preserve"
   inkscape:version="0.48.5 r10040"
   sodipodi:docname="clipboard109.svg"><metadata
   id="metadata3516"><rdf:RDF><cc:Work
       rdf:about=""><dc:format>image/svg+xml</dc:format><dc:type
         rdf:resource="http://purl.org/dc/dcmitype/StillImage" /><dc:title></dc:title></cc:Work></rdf:RDF></metadata><defs
   id="defs3514" /><sodipodi:namedview
   pagecolor="#ffffff"
   bordercolor="#666666"
   borderopacity="1"
   objecttolerance="10"
   gridtolerance="10"
   guidetolerance="10"
   inkscape:pageopacity="0"
   inkscape:pageshadow="2"
   inkscape:window-width="1366"
   inkscape:window-height="706"
   id="namedview3512"
   showgrid="false"
   inkscape:zoom="0.48590665"
   inkscape:cx="-78.204322"
   inkscape:cy="242.845"
   inkscape:window-x="-8"
   inkscape:window-y="-8"
   inkscape:window-maximized="1"
   inkscape:current-layer="Capa_1" />
<g
   id="g3460"
   style="fill:#575757;fill-opacity:1"
   inkscape:export-filename="D:\Logan\clipboard.png"
   inkscape:export-xdpi="24.464897"
   inkscape:export-ydpi="24.464897">
	<g
   id="g3462"
   style="fill:#575757;fill-opacity:1">
		<g
   id="g3464"
   style="fill:#575757;fill-opacity:1">
			<path
   d="M410.428,34.738h-76.405l5.155,23.852c0.634,2.961,0.603,5.934,0.271,8.859h54.621V452.98H91.588V67.449h54.637     c-0.332-2.941-0.348-5.914,0.285-8.891l5.156-23.82H75.248c-9.031,0-16.34,7.324-16.34,16.354v418.243     c0,9.016,7.309,16.354,16.34,16.354h335.18c9.031,0,16.354-7.341,16.354-16.354V51.093     C426.783,42.062,419.459,34.738,410.428,34.738z"
   id="path3466"
   style="fill:#575757;fill-opacity:1" />
			<path
   d="M355.568,152.949h-111.71c-9.047,0-16.355,7.324-16.355,16.34c0,9.035,7.309,16.355,16.355,16.355h111.71     c9.047,0,16.354-7.32,16.354-16.355C371.924,160.273,364.615,152.949,355.568,152.949z"
   id="path3468"
   style="fill:#575757;fill-opacity:1" />
			<path
   d="M355.568,253.254h-111.71c-9.047,0-16.355,7.323-16.355,16.354c0,9.021,7.309,16.357,16.355,16.357h111.71     c9.047,0,16.354-7.34,16.354-16.357C371.924,260.577,364.615,253.254,355.568,253.254z"
   id="path3470"
   style="fill:#575757;fill-opacity:1" />
			<path
   d="M119.556,156.792c-6.898,5.82-7.786,16.137-1.965,23.047l23.855,28.27c3.117,3.699,7.688,5.805,12.496,5.805     c0.398,0,0.792-0.016,1.203-0.047c5.219-0.379,9.949-3.258,12.703-7.719l42.914-69.477c4.746-7.688,2.375-17.75-5.312-22.492     c-7.688-4.777-17.75-2.375-22.497,5.313l-31.066,50.273l-9.301-11.012C136.763,151.843,126.467,150.956,119.556,156.792z"
   id="path3472"
   style="fill:#575757;fill-opacity:1" />
			<path
   d="M158.72,245.094c-13.554,0-24.535,10.978-24.535,24.517c0,13.543,10.98,24.52,24.535,24.52     c13.543,0,24.52-10.977,24.52-24.52C183.24,256.07,172.263,245.094,158.72,245.094z"
   id="path3474"
   style="fill:#575757;fill-opacity:1" />
			<path
   d="M355.568,351.359h-111.71c-9.047,0-16.355,7.309-16.355,16.358c0,9.017,7.309,16.34,16.355,16.34h111.71     c9.047,0,16.354-7.323,16.354-16.34C371.924,358.667,364.615,351.359,355.568,351.359z"
   id="path3476"
   style="fill:#575757;fill-opacity:1" />
			<path
   d="M158.72,343.199c-13.554,0-24.535,10.977-24.535,24.52c0,13.539,10.98,24.521,24.535,24.521     c13.543,0,24.52-10.979,24.52-24.521C183.24,354.176,172.263,343.199,158.72,343.199z"
   id="path3478"
   style="fill:#575757;fill-opacity:1" />
			<path
   d="M173.463,75.613h138.73c3.401,0,6.613-1.521,8.746-4.176c2.137-2.629,2.961-6.105,2.229-9.43L311.686,8.859     C310.564,3.687,305.994,0,300.708,0H184.963c-5.281,0-9.852,3.688-10.977,8.859l-11.5,53.148     c-0.695,3.324,0.125,6.801,2.247,9.43C166.868,74.093,170.08,75.613,173.463,75.613z"
   id="path3480"
   style="fill:#575757;fill-opacity:1" />
		</g>
	</g>
</g>
<g
   id="g3482"
   style="fill:#f2f2f2">
</g>
<g
   id="g3484"
   style="fill:#f2f2f2">
</g>
<g
   id="g3486"
   style="fill:#f2f2f2">
</g>
<g
   id="g3488"
   style="fill:#f2f2f2">
</g>
<g
   id="g3490"
   style="fill:#f2f2f2">
</g>
<g
   id="g3492"
   style="fill:#f2f2f2">
</g>
<g
   id="g3494"
   style="fill:#f2f2f2">
</g>
<g
   id="g3496"
   style="fill:#f2f2f2">
</g>
<g
   id="g3498"
   style="fill:#f2f2f2">
</g>
<g
   id="g3500"
   style="fill:#f2f2f2">
</g>
<g
   id="g3502"
   style="fill:#f2f2f2">
</g>
<g
   id="g3504"
   style="fill:#f2f2f2">
</g>
<g
   id="g3506"
   style="fill:#f2f2f2">
</g>
<g
   id="g3508"
   style="fill:#f2f2f2">
</g>
<g
   id="g3510"
   style="fill:#f2f2f2">
</g>
</svg>