<?xml version="1.0" encoding="UTF-8" standalone="no"?>
<!-- Generator: Adobe Illustrator 16.0.0, SVG Export Plug-In . SVG Version: 6.00 Build 0)  -->

<svg
   xmlns:dc="http://purl.org/dc/elements/1.1/"
   xmlns:cc="http://creativecommons.org/ns#"
   xmlns:rdf="http://www.w3.org/1999/02/22-rdf-syntax-ns#"
   xmlns:svg="http://www.w3.org/2000/svg"
   xmlns="http://www.w3.org/2000/svg"
   xmlns:sodipodi="http://sodipodi.sourceforge.net/DTD/sodipodi-0.dtd"
   xmlns:inkscape="http://www.inkscape.org/namespaces/inkscape"
   version="1.1"
   id="Capa_1"
   x="0px"
   y="0px"
   width="101.647px"
   height="101.647px"
   viewBox="0 0 101.647 101.647"
   style="enable-background:new 0 0 101.647 101.647;"
   xml:space="preserve"
   inkscape:version="0.48.5 r10040"
   sodipodi:docname="data66.svg"><metadata
   id="metadata5189"><rdf:RDF><cc:Work
       rdf:about=""><dc:format>image/svg+xml</dc:format><dc:type
         rdf:resource="http://purl.org/dc/dcmitype/StillImage" /></cc:Work></rdf:RDF></metadata><defs
   id="defs5187" /><sodipodi:namedview
   pagecolor="#ffffff"
   bordercolor="#666666"
   borderopacity="1"
   objecttolerance="10"
   gridtolerance="10"
   guidetolerance="10"
   inkscape:pageopacity="0"
   inkscape:pageshadow="2"
   inkscape:window-width="1366"
   inkscape:window-height="706"
   id="namedview5185"
   showgrid="false"
   inkscape:zoom="2.3217605"
   inkscape:cx="50.823502"
   inkscape:cy="50.823502"
   inkscape:window-x="-8"
   inkscape:window-y="-8"
   inkscape:window-maximized="1"
   inkscape:current-layer="Capa_1" />
<g
   id="g5139"
   style="fill:#575757;fill-opacity:1">
	<g
   id="g5141"
   style="fill:#575757;fill-opacity:1">
		<path
   d="M51.604,13.413c-20.654,0-37.397,16.743-37.397,37.397c0,20.653,16.743,37.397,37.397,37.397    C72.258,88.207,89,71.463,89,50.81c0-0.448-0.018-0.893-0.033-1.337H51.604V13.413z"
   id="path5143"
   style="fill:#575757;fill-opacity:1" />
		<path
   d="M7.766,50.81c0-11.71,4.56-22.719,12.84-30.999C35.963,4.455,59.967,2.907,77.081,15.143h-3.143c-1.657,0-3,1.343-3,3    s1.343,3,3,3h11.141c0.795,0,1.559-0.316,2.121-0.879c0.563-0.563,0.879-1.325,0.879-2.121v-11.5c0-1.657-1.344-3-3-3    c-1.658,0-3,1.344-3,3v3.482c-19.9-14.924-48.333-13.353-66.423,4.737C6.054,24.462,0.766,37.23,0.766,50.81    s5.288,26.347,14.89,35.947c7.557,7.558,17.106,12.471,27.615,14.208l1.142-6.906c-9.058-1.498-17.29-5.734-23.807-12.251    C12.326,73.527,7.766,62.519,7.766,50.81z"
   id="path5145"
   style="fill:#575757;fill-opacity:1" />
		<path
   d="M63.848,92.912c-4.628,1.342-9.426,1.905-14.256,1.689l-0.318,6.992c0.782,0.035,1.562,0.054,2.341,0.054    c4.805,0,9.565-0.675,14.18-2.013c1.529-0.442,3.061-0.967,4.55-1.555l-2.574-6.511C66.486,92.078,65.167,92.531,63.848,92.912z"
   id="path5147"
   style="fill:#575757;fill-opacity:1" />
		<path
   d="M76.809,86.687c-1.98,1.396-4.092,2.633-6.27,3.676l3.021,6.314c2.53-1.211,4.979-2.647,7.28-4.269    c2.379-1.675,4.638-3.576,6.712-5.65l-4.95-4.949C80.811,83.6,78.862,85.242,76.809,86.687z"
   id="path5149"
   style="fill:#575757;fill-opacity:1" />
		<path
   d="M88.827,73.99c-0.732,1.172-1.527,2.32-2.365,3.414c-0.457,0.598-0.932,1.186-1.422,1.764l5.334,4.533    c0.568-0.67,1.123-1.356,1.646-2.041c0.973-1.271,1.896-2.604,2.745-3.966c0.961-1.54,1.849-3.149,2.638-4.784l-6.304-3.043    C90.418,71.275,89.654,72.662,88.827,73.99z"
   id="path5151"
   style="fill:#575757;fill-opacity:1" />
		<path
   d="M94.096,61.619c-0.501,1.979-1.146,3.937-1.917,5.82l6.479,2.65c0.894-2.188,1.641-4.458,2.223-6.752L94.096,61.619z"
   id="path5153"
   style="fill:#575757;fill-opacity:1" />
	</g>
</g>
<g
   id="g5155">
</g>
<g
   id="g5157">
</g>
<g
   id="g5159">
</g>
<g
   id="g5161">
</g>
<g
   id="g5163">
</g>
<g
   id="g5165">
</g>
<g
   id="g5167">
</g>
<g
   id="g5169">
</g>
<g
   id="g5171">
</g>
<g
   id="g5173">
</g>
<g
   id="g5175">
</g>
<g
   id="g5177">
</g>
<g
   id="g5179">
</g>
<g
   id="g5181">
</g>
<g
   id="g5183">
</g>
</svg>