<?xml version="1.0" encoding="UTF-8" standalone="no"?>
<!-- Generator: Adobe Illustrator 16.0.0, SVG Export Plug-In . SVG Version: 6.00 Build 0)  -->

<svg
   xmlns:dc="http://purl.org/dc/elements/1.1/"
   xmlns:cc="http://creativecommons.org/ns#"
   xmlns:rdf="http://www.w3.org/1999/02/22-rdf-syntax-ns#"
   xmlns:svg="http://www.w3.org/2000/svg"
   xmlns="http://www.w3.org/2000/svg"
   xmlns:sodipodi="http://sodipodi.sourceforge.net/DTD/sodipodi-0.dtd"
   xmlns:inkscape="http://www.inkscape.org/namespaces/inkscape"
   version="1.1"
   id="Capa_1"
   x="0px"
   y="0px"
   width="535.5px"
   height="535.5px"
   viewBox="0 0 535.5 535.5"
   style="enable-background:new 0 0 535.5 535.5;"
   xml:space="preserve"
   inkscape:version="0.48.5 r10040"
   sodipodi:docname="help18.svg"><metadata
   id="metadata4368"><rdf:RDF><cc:Work
       rdf:about=""><dc:format>image/svg+xml</dc:format><dc:type
         rdf:resource="http://purl.org/dc/dcmitype/StillImage" /><dc:title></dc:title></cc:Work></rdf:RDF></metadata><defs
   id="defs4366" /><sodipodi:namedview
   pagecolor="#ffffff"
   bordercolor="#666666"
   borderopacity="1"
   objecttolerance="10"
   gridtolerance="10"
   guidetolerance="10"
   inkscape:pageopacity="0"
   inkscape:pageshadow="2"
   inkscape:window-width="1366"
   inkscape:window-height="706"
   id="namedview4364"
   showgrid="false"
   inkscape:zoom="0.44070962"
   inkscape:cx="-86.224576"
   inkscape:cy="267.75"
   inkscape:window-x="-8"
   inkscape:window-y="-8"
   inkscape:window-maximized="1"
   inkscape:current-layer="live-help" />
<g
   id="g4329">
	<g
   id="live-help">
		<path
   d="M446.25,0h-357c-28.05,0-51,22.95-51,51v357c0,28.05,22.95,51,51,51h102l76.5,76.5l76.5-76.5h102c28.05,0,51-22.95,51-51    V51C497.25,22.95,474.3,0,446.25,0z M293.25,408h-51v-51h51V408z M346.8,211.65l-22.95,22.95c-20.399,17.85-30.6,33.15-30.6,71.4    h-51v-12.75c0-28.05,10.2-53.55,30.6-71.4l30.601-33.15c10.2-7.65,15.3-20.4,15.3-35.7c0-28.05-22.95-51-51-51s-51,22.95-51,51    h-51c0-56.1,45.9-102,102-102c56.1,0,102,45.9,102,102C369.75,175.95,359.55,196.35,346.8,211.65z"
   id="path4332"
   style="fill:#575757;fill-opacity:1"
   inkscape:export-filename="D:\Logan\help.png"
   inkscape:export-xdpi="19.663866"
   inkscape:export-ydpi="19.663866" />
	</g>
</g>
<g
   id="g4334">
</g>
<g
   id="g4336">
</g>
<g
   id="g4338">
</g>
<g
   id="g4340">
</g>
<g
   id="g4342">
</g>
<g
   id="g4344">
</g>
<g
   id="g4346">
</g>
<g
   id="g4348">
</g>
<g
   id="g4350">
</g>
<g
   id="g4352">
</g>
<g
   id="g4354">
</g>
<g
   id="g4356">
</g>
<g
   id="g4358">
</g>
<g
   id="g4360">
</g>
<g
   id="g4362">
</g>
</svg>